<svg width="40" height="40" viewBox="0 0 40 40" fill="none" xmlns="http://www.w3.org/2000/svg">
<path d="M15.5358 1.4751C15.8988 0.82846 16.8297 0.82846 17.1928 1.4751L22.5033 10.9334C22.5753 11.0616 22.6761 11.1714 22.7977 11.2541L31.5721 17.2168C32.1269 17.5938 32.1269 18.4115 31.5721 18.7885L22.7977 24.7513C22.6761 24.8339 22.5753 24.9437 22.5033 25.072L17.1928 34.5303C16.8297 35.1769 15.8988 35.1769 15.5358 34.5303L10.2253 25.072C10.1533 24.9437 10.0525 24.8339 9.93081 24.7513L1.15643 18.7885C0.601618 18.4115 0.60162 17.5938 1.15643 17.2168L9.93081 11.2541C10.0525 11.1714 10.1533 11.0616 10.2253 10.9334L15.5358 1.4751Z" fill="url(#paint0_linear_2357_33999)"/>
<path opacity="0.5" d="M32.3957 24.5871C32.5409 24.3284 32.9133 24.3284 33.0585 24.5871L35.4604 28.865C35.4892 28.9163 35.5295 28.9602 35.5782 28.9933L39.5375 31.6839C39.7595 31.8347 39.7595 32.1618 39.5375 32.3126L35.5782 35.0032C35.5295 35.0363 35.4892 35.0802 35.4604 35.1315L33.0585 39.4094C32.9133 39.6681 32.5409 39.6681 32.3957 39.4094L29.9938 35.1315C29.965 35.0802 29.9247 35.0363 29.876 35.0032L25.9167 32.3126C25.6947 32.1618 25.6947 31.8347 25.9167 31.6839L29.876 28.9933C29.9247 28.9602 29.965 28.9163 29.9938 28.865L32.3957 24.5871Z" fill="url(#paint1_linear_2357_33999)"/>
<defs>
<linearGradient id="paint0_linear_2357_33999" x1="-1.12191e-07" y1="10.3309" x2="33.315" y2="12.1" gradientUnits="userSpaceOnUse">
<stop stop-color="white"/>
<stop offset="0.9" stop-color="#D0DBF3"/>
</linearGradient>
<linearGradient id="paint1_linear_2357_33999" x1="25.4541" y1="28.5885" x2="40.2608" y2="29.3748" gradientUnits="userSpaceOnUse">
<stop stop-color="white"/>
<stop offset="0.9" stop-color="#D0DBF3"/>
</linearGradient>
</defs>
</svg>
