<svg width="25" height="24" viewBox="0 0 25 24" fill="none" xmlns="http://www.w3.org/2000/svg">
<path d="M3.79079 3.39089C3.21661 3.96508 2.89404 4.74384 2.89404 5.55586V18.4473C2.89404 19.2593 3.21661 20.0381 3.79079 20.6123C4.36498 21.1865 5.14374 21.509 5.95576 21.509H18.8472C19.6592 21.509 20.438 21.1865 21.0122 20.6123C21.5864 20.0381 21.9089 19.2593 21.9089 18.4473V5.55586C21.9089 4.74384 21.5864 3.96508 21.0122 3.39089C20.438 2.81671 19.6592 2.49413 18.8472 2.49413H5.95576C5.14374 2.49413 4.36498 2.81671 3.79079 3.39089ZM18.8472 19.6827H16.5375V4.32042H18.8472C19.5291 4.32042 20.0827 4.87393 20.0827 5.55586V18.4473C20.0827 19.1292 19.5291 19.6827 18.8472 19.6827ZM14.7112 4.32042V19.6827H5.95576C5.27383 19.6827 4.72033 19.1292 4.72033 18.4473V5.55586C4.72033 4.87393 5.27383 4.32042 5.95576 4.32042H14.7112Z" fill="#172B4D" stroke="#172B4D" stroke-width="0.214858"/>
</svg>
