<svg width="138" height="32" viewBox="0 0 138 32" fill="none" xmlns="http://www.w3.org/2000/svg">
<g clip-path="url(#clip0_2359_36107)">
<path d="M19.3269 9.95626C19.3269 13.2555 16.7069 15.9301 13.475 15.9301H8.41956C7.97966 15.9301 7.62305 15.5735 7.62305 15.1336V9.95626C7.62305 6.657 10.243 3.98242 13.475 3.98242C16.7069 3.98242 19.3269 6.657 19.3269 9.95626Z" fill="url(#paint0_linear_2359_36107)"/>
<path d="M19.3276 21.904C19.3276 18.6048 21.9476 15.9302 25.1796 15.9302H30.235C30.6749 15.9302 31.0315 16.2868 31.0315 16.7267V21.904C31.0315 25.2033 28.4115 27.8779 25.1796 27.8779C21.9476 27.8779 19.3276 25.2033 19.3276 21.904Z" fill="url(#paint1_linear_2359_36107)"/>
<path d="M7.62305 21.904C7.62305 25.2033 10.243 27.8779 13.475 27.8779H18.5304C18.9703 27.8779 19.3269 27.5212 19.3269 27.0813V21.904C19.3269 18.6048 16.7069 15.9302 13.475 15.9302C10.243 15.9302 7.62305 18.6048 7.62305 21.904Z" fill="url(#paint2_linear_2359_36107)"/>
<path d="M31.0315 9.95626C31.0315 6.657 28.4115 3.98242 25.1796 3.98242H20.1241C19.6842 3.98242 19.3276 4.33903 19.3276 4.77893V9.95626C19.3276 13.2555 21.9476 15.9301 25.1796 15.9301C28.4115 15.9301 31.0315 13.2555 31.0315 9.95626Z" fill="url(#paint3_linear_2359_36107)"/>
</g>
<path d="M36.537 17.0587V8.96297H39.3758V16.866C39.3758 18.4956 40.2694 19.3893 41.8641 19.3893C43.4762 19.3893 44.3874 18.4606 44.3874 16.866V8.96297H47.2262V17.0587C47.2262 20.1428 45.1234 22.1405 41.8641 22.1405C38.6223 22.1405 36.537 20.1603 36.537 17.0587ZM51.9032 21.9302H48.8367L51.7806 17.6895L48.8367 13.1685H51.9558L53.568 15.8321L55.075 13.1685H58.089L55.1976 17.637L57.9838 21.9302H54.8822L53.3752 19.4068L51.9032 21.9302ZM62.1517 21.9302H59.4532V13.1685H61.9765L62.1517 14.0798C62.5898 13.4664 63.4485 12.8882 64.7101 12.8882C66.0244 12.8882 66.8655 13.5015 67.3737 14.4302C67.8293 13.5015 68.8632 12.8882 70.1248 12.8882C72.3853 12.8882 73.5068 14.2024 73.5068 16.2001V21.9302H70.8082V16.9536C70.8082 15.8496 70.23 15.3239 69.3713 15.3239C68.6003 15.3239 67.8293 15.7445 67.8293 17.2339V21.9302H65.1307V16.9536C65.1307 15.8671 64.57 15.3414 63.7113 15.3414C62.9403 15.3414 62.1517 15.762 62.1517 17.2339V21.9302ZM78.2575 22.158C76.4001 22.158 75.2435 21.0715 75.2435 19.3543C75.2435 17.7421 76.3825 16.7433 78.4853 16.5856L80.9386 16.3928V16.2526C80.9386 15.394 80.4129 14.9384 79.4491 14.9384C78.3101 14.9384 77.6968 15.3765 77.6968 16.165H75.4538C75.4538 14.1849 77.0835 12.8882 79.5893 12.8882C82.1302 12.8882 83.5671 14.3076 83.5671 16.8134V21.9302H81.1839L81.0087 20.7736C80.7283 21.5797 79.5718 22.158 78.2575 22.158ZM79.2038 20.1603C80.2377 20.1603 80.9561 19.6522 80.9561 18.6533V18.1802L79.5893 18.3029C78.4152 18.408 77.9947 18.6709 77.9947 19.2316C77.9947 19.8624 78.3802 20.1603 79.2038 20.1603ZM85.2397 17.3917C85.2397 14.7281 86.9745 12.8707 89.4453 12.8707C90.6369 12.8707 91.5832 13.3263 92.0563 14.0447L92.1965 13.1685H94.7373V21.3694C94.7373 24.5061 92.9324 26.3986 89.936 26.3986C87.2549 26.3986 85.45 24.8741 85.2047 22.3858H87.9383C87.9909 23.3671 88.7269 23.9454 89.9184 23.9454C91.2152 23.9454 92.0388 23.1743 92.0388 21.9302V20.7912C91.5131 21.422 90.5318 21.825 89.3927 21.825C86.9395 21.825 85.2397 20.0201 85.2397 17.3917ZM87.9558 17.3216C87.9558 18.5832 88.797 19.4769 89.9885 19.4769C91.2152 19.4769 92.0388 18.6183 92.0388 17.3216C92.0388 16.0424 91.2152 15.2188 89.971 15.2188C88.7794 15.2188 87.9558 16.0774 87.9558 17.3216ZM98.2738 11.8017C97.4151 11.8017 96.7317 11.1183 96.7317 10.2597C96.7317 9.40105 97.4151 8.73516 98.2738 8.73516C99.1149 8.73516 99.7983 9.40105 99.7983 10.2597C99.7983 11.1183 99.1149 11.8017 98.2738 11.8017ZM96.942 21.9302V13.1685H99.6406V21.9302H96.942ZM101.367 17.5143C101.367 14.8157 103.225 12.8882 105.853 12.8882C108.447 12.8882 110.164 14.3076 110.339 16.6031H107.623C107.43 15.7269 106.887 15.3064 105.958 15.3064C104.819 15.3064 104.083 16.165 104.083 17.5143C104.083 18.9162 104.767 19.7398 105.923 19.7398C106.869 19.7398 107.448 19.3017 107.623 18.443H110.339C110.164 20.651 108.376 22.158 105.923 22.158C103.155 22.158 101.367 20.318 101.367 17.5143ZM113.332 22.158C112.438 22.158 111.72 21.4395 111.72 20.5809C111.72 19.7047 112.438 18.9863 113.332 18.9863C114.191 18.9863 114.944 19.7047 114.944 20.5809C114.944 21.4395 114.191 22.158 113.332 22.158ZM119.69 22.158C117.833 22.158 116.676 21.0715 116.676 19.3543C116.676 17.7421 117.815 16.7433 119.918 16.5856L122.372 16.3928V16.2526C122.372 15.394 121.846 14.9384 120.882 14.9384C119.743 14.9384 119.13 15.3765 119.13 16.165H116.887C116.887 14.1849 118.516 12.8882 121.022 12.8882C123.563 12.8882 125 14.3076 125 16.8134V21.9302H122.617L122.442 20.7736C122.161 21.5797 121.005 22.158 119.69 22.158ZM120.637 20.1603C121.671 20.1603 122.389 19.6522 122.389 18.6533V18.1802L121.022 18.3029C119.848 18.408 119.428 18.6709 119.428 19.2316C119.428 19.8624 119.813 20.1603 120.637 20.1603ZM128.443 11.8017C127.584 11.8017 126.9 11.1183 126.9 10.2597C126.9 9.40105 127.584 8.73516 128.443 8.73516C129.284 8.73516 129.967 9.40105 129.967 10.2597C129.967 11.1183 129.284 11.8017 128.443 11.8017ZM127.111 21.9302V13.1685H129.809V21.9302H127.111Z" fill="#21272A"/>
<defs>
<linearGradient id="paint0_linear_2359_36107" x1="15.5333" y1="14.8701" x2="6.87197" y2="12.2635" gradientUnits="userSpaceOnUse">
<stop stop-color="#DC79FF"/>
<stop offset="0.9" stop-color="#256BFA"/>
</linearGradient>
<linearGradient id="paint1_linear_2359_36107" x1="21.9058" y1="17.2597" x2="29.0677" y2="20.725" gradientUnits="userSpaceOnUse">
<stop stop-color="#DC79FF"/>
<stop offset="0.9" stop-color="#256BFA"/>
</linearGradient>
<linearGradient id="paint2_linear_2359_36107" x1="17.1264" y1="17.2597" x2="15.2913" y2="25.8775" gradientUnits="userSpaceOnUse">
<stop stop-color="#DC79FF"/>
<stop offset="0.9" stop-color="#256BFA"/>
</linearGradient>
<linearGradient id="paint3_linear_2359_36107" x1="21.1093" y1="14.0736" x2="23.3723" y2="4.81243" gradientUnits="userSpaceOnUse">
<stop stop-color="#DC79FF"/>
<stop offset="0.9" stop-color="#256BFA"/>
</linearGradient>
<clipPath id="clip0_2359_36107">
<rect width="25.4884" height="25.4884" fill="white" transform="translate(6.37207 3.18604)"/>
</clipPath>
</defs>
</svg>
