<svg width="58" height="48" viewBox="0 0 58 48" fill="none" xmlns="http://www.w3.org/2000/svg">
<path d="M11.5 40C10.675 40 9.96875 39.7063 9.38125 39.1187C8.79375 38.5312 8.5 37.825 8.5 37V11C8.5 10.175 8.79375 9.46875 9.38125 8.88125C9.96875 8.29375 10.675 8 11.5 8H43C43.425 8 43.7812 8.14458 44.0688 8.43375C44.3563 8.72295 44.5 9.08128 44.5 9.50875C44.5 9.93625 44.3563 10.2917 44.0688 10.575C43.7812 10.8583 43.425 11 43 11H11.5V37H18C18.425 37 18.7812 37.1446 19.0688 37.4338C19.3562 37.7229 19.5 38.0813 19.5 38.5087C19.5 38.9363 19.3562 39.2917 19.0688 39.575C18.7812 39.8583 18.425 40 18 40H11.5ZM26.9941 36C27.9647 36 28.7917 35.6603 29.475 34.9809C30.1583 34.3015 30.5 33.4765 30.5 32.5059C30.5 31.5353 30.1603 30.7083 29.4809 30.025C28.8015 29.3417 27.9765 29 27.0059 29C26.0353 29 25.2083 29.3397 24.525 30.0191C23.8417 30.6985 23.5 31.5235 23.5 32.4941C23.5 33.4647 23.8397 34.2917 24.5191 34.975C25.1985 35.6583 26.0235 36 26.9941 36ZM47 40H36C35.575 40 35.2188 39.8563 34.9312 39.5688C34.6438 39.2812 34.5 38.925 34.5 38.5V19.5C34.5 19.075 34.6438 18.7188 34.9312 18.4313C35.2188 18.1438 35.575 18 36 18H47C47.425 18 47.7812 18.1438 48.0688 18.4313C48.3563 18.7188 48.5 19.075 48.5 19.5V38.5C48.5 38.925 48.3563 39.2812 48.0688 39.5688C47.7812 39.8563 47.425 40 47 40ZM37.5 37H45.5V21H37.5V37ZM23.5 38.5V36.75C22.9 36.25 22.4167 35.6333 22.05 34.9C21.6833 34.1667 21.5 33.3667 21.5 32.5C21.5 31.6333 21.6833 30.8333 22.05 30.1C22.4167 29.3667 22.9 28.75 23.5 28.25V26.5C23.5 26.075 23.6438 25.7188 23.9313 25.4312C24.2188 25.1438 24.575 25 25 25H29C29.425 25 29.7812 25.1438 30.0688 25.4312C30.3563 25.7188 30.5 26.075 30.5 26.5V28.25C31.1 28.75 31.5833 29.3667 31.95 30.1C32.3167 30.8333 32.5 31.6333 32.5 32.5C32.5 33.3667 32.3167 34.1667 31.95 34.9C31.5833 35.6333 31.1 36.25 30.5 36.75V38.5C30.5 38.925 30.3563 39.2812 30.0688 39.5688C29.7812 39.8563 29.425 40 29 40H25C24.575 40 24.2188 39.8563 23.9313 39.5688C23.6438 39.2812 23.5 38.925 23.5 38.5Z" fill="#42566E"/>
</svg>
