<svg width="58" height="48" viewBox="0 0 58 48" fill="none" xmlns="http://www.w3.org/2000/svg">
<path d="M13.5 22.5C12.675 22.5 11.9688 22.2063 11.3813 21.6188C10.7938 21.0312 10.5 20.325 10.5 19.5V9C10.5 8.175 10.7938 7.46875 11.3813 6.88125C11.9688 6.29375 12.675 6 13.5 6H24C24.825 6 25.5312 6.29375 26.1188 6.88125C26.7063 7.46875 27 8.175 27 9V19.5C27 20.325 26.7063 21.0312 26.1188 21.6188C25.5312 22.2063 24.825 22.5 24 22.5H13.5ZM13.5 42C12.675 42 11.9688 41.7062 11.3813 41.1188C10.7938 40.5312 10.5 39.825 10.5 39V28.5C10.5 27.675 10.7938 26.9688 11.3813 26.3813C11.9688 25.7938 12.675 25.5 13.5 25.5H24C24.825 25.5 25.5312 25.7938 26.1188 26.3813C26.7063 26.9688 27 27.675 27 28.5V39C27 39.825 26.7063 40.5312 26.1188 41.1188C25.5312 41.7062 24.825 42 24 42H13.5ZM33 22.5C32.175 22.5 31.4688 22.2063 30.8813 21.6188C30.2938 21.0312 30 20.325 30 19.5V9C30 8.175 30.2938 7.46875 30.8813 6.88125C31.4688 6.29375 32.175 6 33 6H43.5C44.325 6 45.0312 6.29375 45.6188 6.88125C46.2062 7.46875 46.5 8.175 46.5 9V19.5C46.5 20.325 46.2062 21.0312 45.6188 21.6188C45.0312 22.2063 44.325 22.5 43.5 22.5H33ZM33 42C32.175 42 31.4688 41.7062 30.8813 41.1188C30.2938 40.5312 30 39.825 30 39V28.5C30 27.675 30.2938 26.9688 30.8813 26.3813C31.4688 25.7938 32.175 25.5 33 25.5H43.5C44.325 25.5 45.0312 25.7938 45.6188 26.3813C46.2062 26.9688 46.5 27.675 46.5 28.5V39C46.5 39.825 46.2062 40.5312 45.6188 41.1188C45.0312 41.7062 44.325 42 43.5 42H33ZM13.5 19.5H24V9H13.5V19.5ZM33 19.5H43.5V9H33V19.5ZM33 39H43.5V28.5H33V39ZM13.5 39H24V28.5H13.5V39Z" fill="#42566E"/>
</svg>
