<svg width="24" height="24" viewBox="0 0 24 24" fill="none" xmlns="http://www.w3.org/2000/svg">
<rect width="24" height="24" rx="12" fill="white"/>
<path d="M11.0962 7.13734C11.3831 6.26523 12.6167 6.26523 12.9036 7.13734L13.7333 9.66009C13.8276 9.94708 14.0527 10.1722 14.3397 10.2666L16.8625 11.0962C17.7346 11.3831 17.7346 12.6167 16.8625 12.9036L14.3397 13.7333C14.0527 13.8276 13.8276 14.0527 13.7333 14.3397L12.9036 16.8625C12.6167 17.7346 11.3831 17.7346 11.0962 16.8625L10.2666 14.3397C10.1722 14.0527 9.94708 13.8276 9.66009 13.7333L7.13734 12.9036C6.26523 12.6167 6.26523 11.3831 7.13734 11.0962L9.66009 10.2666C9.94708 10.1722 10.1722 9.94708 10.2666 9.66009L11.0962 7.13734Z" fill="#346EF1"/>
</svg>
