<svg width="24" height="24" viewBox="0 0 24 24" fill="none" xmlns="http://www.w3.org/2000/svg">
<rect x="0.21875" y="0.21875" width="22.8308" height="22.8308" rx="11.4154" fill="url(#paint0_linear_2179_436)"/>
<path d="M10.7305 6.77113C11.0173 5.89902 12.251 5.89902 12.5378 6.77113L13.3675 9.29388C13.4619 9.58087 13.687 9.80596 13.974 9.90035L16.4967 10.73C17.3689 11.0169 17.3689 12.2505 16.4967 12.5374L13.974 13.367C13.687 13.4614 13.4619 13.6865 13.3675 13.9735L12.5378 16.4963C12.251 17.3684 11.0173 17.3684 10.7305 16.4963L9.90083 13.9735C9.80645 13.6865 9.58136 13.4614 9.29437 13.367L6.77162 12.5374C5.89951 12.2505 5.89951 11.0169 6.77162 10.73L9.29437 9.90035C9.58136 9.80596 9.80645 9.58087 9.90083 9.29388L10.7305 6.77113Z" fill="white"/>
<defs>
<linearGradient id="paint0_linear_2179_436" x1="0.21875" y1="6.76963" x2="23.4449" y2="8.12656" gradientUnits="userSpaceOnUse">
<stop stop-color="#DC79FF"/>
<stop offset="0.9" stop-color="#256BFA"/>
</linearGradient>
</defs>
</svg>
