<svg width="58" height="48" viewBox="0 0 58 48" fill="none" xmlns="http://www.w3.org/2000/svg">
<path d="M6.75 40C6.125 40 5.59375 39.7804 5.15625 39.3412C4.71875 38.902 4.5 38.3686 4.5 37.7412C4.5 37.1137 4.71875 36.5833 5.15625 36.15C5.59375 35.7167 6.125 35.5 6.75 35.5H8.5V11C8.5 10.175 8.79375 9.46875 9.38125 8.88125C9.96875 8.29375 10.675 8 11.5 8H41C41.425 8 41.7813 8.14458 42.0688 8.43375C42.3563 8.72295 42.5 9.08128 42.5 9.50875C42.5 9.93625 42.3563 10.2917 42.0688 10.575C41.7813 10.8583 41.425 11 41 11H11.5V35.5H30.25C30.875 35.5 31.4062 35.7196 31.8438 36.1588C32.2812 36.598 32.5 37.1314 32.5 37.7588C32.5 38.3863 32.2812 38.9167 31.8438 39.35C31.4062 39.7833 30.875 40 30.25 40H6.75ZM37 40C36.575 40 36.2188 39.8563 35.9312 39.5688C35.6437 39.2812 35.5 38.925 35.5 38.5V15.5C35.5 15.075 35.6437 14.7188 35.9312 14.4313C36.2188 14.1438 36.575 14 37 14H52C52.425 14 52.7813 14.1438 53.0688 14.4313C53.3563 14.7188 53.5 15.075 53.5 15.5V38.5C53.5 38.925 53.3563 39.2812 53.0688 39.5688C52.7813 39.8563 52.425 40 52 40H37ZM38.5 35.5H50.5V17H38.5V35.5Z" fill="#42566E"/>
</svg>
