<svg width="24" height="24" viewBox="0 0 24 24" fill="none" xmlns="http://www.w3.org/2000/svg">
<path d="M2 12C2 10.0222 2.58649 8.08879 3.6853 6.4443C4.78412 4.79981 6.3459 3.51809 8.17316 2.76121C10.0004 2.00433 12.0111 1.8063 13.9509 2.19215C15.8907 2.578 17.6725 3.53041 19.0711 4.92894C20.4696 6.32746 21.422 8.10929 21.8078 10.0491C22.1937 11.9889 21.9957 13.9996 21.2388 15.8268C20.4819 17.6541 19.2002 19.2159 17.5557 20.3147C15.9112 21.4135 13.9778 22 12 22C9.34878 21.9969 6.80705 20.9423 4.93235 19.0676C3.05766 17.193 2.0031 14.6512 2 12ZM3.46341 12C3.46341 13.6884 3.96408 15.3388 4.90209 16.7427C5.8401 18.1465 7.17333 19.2407 8.73319 19.8868C10.293 20.5329 12.0095 20.7019 13.6654 20.3726C15.3213 20.0432 16.8424 19.2301 18.0363 18.0363C19.2301 16.8424 20.0432 15.3213 20.3726 13.6654C20.7019 12.0095 20.5329 10.293 19.8868 8.73319C19.2407 7.17334 18.1465 5.8401 16.7427 4.90209C15.3388 3.96408 13.6884 3.46342 12 3.46342C9.73667 3.46574 7.5667 4.36588 5.96629 5.96629C4.36587 7.56671 3.46574 9.73667 3.46341 12ZM9.89561 15.3815C9.73756 15.2273 9.31902 14.8146 9.31707 12.081C9.31707 9.18732 9.75122 8.75122 9.89463 8.60878C9.98709 8.51952 10.0966 8.44984 10.2166 8.40391C10.3367 8.35797 10.4647 8.33674 10.5932 8.34147C10.9386 8.36182 11.277 8.44791 11.5902 8.59513C12.0976 8.80878 15.6585 10.6361 15.6585 11.9961C15.6585 13.2732 12.4556 15.0615 11.6361 15.4029C11.3143 15.5523 10.967 15.6391 10.6127 15.6585C10.4806 15.6633 10.349 15.6412 10.2257 15.5936C10.1024 15.546 9.99014 15.4738 9.89561 15.3815ZM10.9073 14.1249C12.0928 13.6075 13.1795 12.8882 14.119 11.999C13.1731 11.1242 12.0893 10.4115 10.9112 9.88976C10.7379 11.2961 10.7366 12.7183 10.9073 14.1249Z" fill="#172B4D"/>
</svg>
