<svg width="12" height="12" viewBox="0 0 12 12" fill="none" xmlns="http://www.w3.org/2000/svg">
<path d="M5.05006 0.888408C5.35157 -0.0283663 6.64843 -0.0283639 6.94994 0.888411L7.82212 3.54035C7.92134 3.84204 8.15796 4.07866 8.45964 4.17788L11.1116 5.05006C12.0284 5.35157 12.0284 6.64843 11.1116 6.94994L8.45964 7.82212C8.15796 7.92134 7.92134 8.15796 7.82212 8.45964L6.94994 11.1116C6.64843 12.0284 5.35157 12.0284 5.05006 11.1116L4.17788 8.45964C4.07866 8.15796 3.84204 7.92134 3.54036 7.82212L0.888408 6.94994C-0.0283662 6.64843 -0.0283637 5.35156 0.888411 5.05006L3.54036 4.17788C3.84204 4.07866 4.07866 3.84204 4.17788 3.54035L5.05006 0.888408Z" fill="white"/>
</svg>
